<svg xmlns="http://www.w3.org/2000/svg" width="59" height="76" viewBox="0 0 59 76">
    <path fill="none" fill-rule="nonzero" stroke="#979797" stroke-width="2" d="M14.455 59.071S17 60.443 17 63.461c-1.074 7.06-2.566 9.53-6.848 10.42-4.25.884-6.592-2.6-7.787-3.211 1.956-2.5 4.084-.873 5.485-5.621 1.4-4.748 4.398-6.432 6.605-5.978zm17.02-30.368C35.916 23.274 56.68.8 57.566 1.5c.885.701-16.17 30.213-18.131 33.237C38.126 36.753 31.556 44.84 19.726 59c-.156-1.435-.631-2.513-1.424-3.233a4.678 4.678 0 0 0-2.781-1.23c7.676-13.603 12.995-22.214 15.955-25.834z"/>
</svg>
